<svg version="1.1" id="Layer_1" xmlns="http://www.w3.org/2000/svg" xmlns:xlink="http://www.w3.org/1999/xlink" x="0px" y="0px"
	 width="100%" viewBox="0 0 64 64" enable-background="new 0 0 64 64" xml:space="preserve">
<path fill="#000000" opacity="1.000000" stroke="none" 
	d="
M43.000290,65.000000 
	C28.666895,65.000000 14.833565,65.000000 1.000176,65.000000 
	C1.000118,43.666752 1.000118,22.333500 1.000059,1.000188 
	C22.333244,1.000125 43.666489,1.000125 64.999802,1.000063 
	C64.999863,22.333239 64.999863,43.666477 64.999931,64.999863 
	C57.833450,65.000000 50.666901,65.000000 43.000290,65.000000 
M20.036173,47.259090 
	C21.669044,48.416954 23.301916,49.574821 25.246857,50.953976 
	C27.931623,40.988087 30.231373,32.451382 32.531124,23.914680 
	C32.846951,23.931602 33.162781,23.948526 33.478607,23.965448 
	C35.782795,32.537575 38.086987,41.109707 40.795631,51.186504 
	C42.840141,49.560860 45.404854,48.577015 45.809811,47.028400 
	C48.450089,36.931629 50.621956,26.712364 53.008179,16.265430 
	C51.376484,16.265430 49.815170,16.265430 48.305126,16.265430 
	C46.531082,24.904684 44.796806,33.350292 43.062531,41.795902 
	C40.090187,34.385212 38.139492,26.966600 35.928333,19.626453 
	C35.515823,18.257107 34.058086,17.202625 33.082722,16.002836 
	C32.054359,17.147528 30.489342,18.130224 30.086775,19.463821 
	C27.865261,26.823111 25.927387,34.268021 23.892265,41.683575 
	C23.555746,41.657429 23.219225,41.631283 22.882704,41.605137 
	C21.150539,33.134430 19.418375,24.663723 17.630894,15.922504 
	C15.974771,16.063488 14.482007,16.190567 12.920027,16.323536 
	C15.365403,26.710278 17.683929,36.558231 20.036173,47.259090 
z"/>
<path fill="#FFFFFF" opacity="1.000000" stroke="none" 
	d="
M20.019316,46.832634 
	C17.683929,36.558231 15.365403,26.710278 12.920027,16.323536 
	C14.482007,16.190567 15.974771,16.063488 17.630894,15.922504 
	C19.418375,24.663723 21.150539,33.134430 22.882704,41.605137 
	C23.219225,41.631283 23.555746,41.657429 23.892265,41.683575 
	C25.927387,34.268021 27.865261,26.823111 30.086775,19.463821 
	C30.489342,18.130224 32.054359,17.147528 33.082722,16.002834 
	C34.058086,17.202625 35.515823,18.257107 35.928333,19.626453 
	C38.139492,26.966600 40.090187,34.385212 43.062531,41.795902 
	C44.796806,33.350292 46.531082,24.904684 48.305126,16.265430 
	C49.815170,16.265430 51.376484,16.265430 53.008179,16.265430 
	C50.621956,26.712364 48.450089,36.931629 45.809811,47.028400 
	C45.404854,48.577015 42.840141,49.560860 40.795631,51.186504 
	C38.086987,41.109707 35.782795,32.537575 33.478607,23.965448 
	C33.162781,23.948526 32.846951,23.931602 32.531124,23.914680 
	C30.231373,32.451382 27.931623,40.988087 25.246857,50.953976 
	C23.301916,49.574821 21.669044,48.416954 20.019316,46.832634 
z"/>
</svg>